<svg width="1332" height="260" viewBox="0 0 1332 260" fill="none" xmlns="http://www.w3.org/2000/svg">
<path d="M56 57.2603L24 53L24.5458 56.3058C25.6696 63.1141 31.6507 68.3192 39.0156 68.8987L39.654 68.9489C47.5234 69.5678 54.6049 64.504 56 57.2603Z" fill="#388EE9"/>
<path d="M164.367 153.665C197.712 144.092 221 113.124 221 78.3568C221 35.1506 185.906 0 142.771 0H0L0.0217078 30.0756C28.955 20.8286 63.6366 33.5441 78.8646 52.2331C78.8646 52.2331 151.825 45.9273 162.271 93.412C162.271 93.412 93.1491 64.0677 54.707 118.393C45.5691 131.307 43.3462 146.886 37.7619 165.982C27.3514 201.583 21.2097 228.131 7.47618 256H57.4411L75.2242 172.629H103.441L152.772 256H216.269L157.33 157.268L163.665 153.885L164.367 153.665Z" fill="#388EE9"/>
<path fill-rule="evenodd" clip-rule="evenodd" d="M980.846 255.775V46.1445H1049.71C1069.97 46.1445 1088.12 49.9001 1103.81 57.8418C1119.63 65.8519 1131.93 77.759 1140.53 93.3388C1149.21 108.892 1153.21 127.677 1153.21 149.123C1153.21 171.444 1149.03 190.996 1140.03 207.229C1131.23 223.405 1118.43 235.687 1101.87 243.865C1085.46 251.973 1066.09 255.775 1044.19 255.775H980.846ZM1090.19 197.893C1100.15 188.071 1106.03 172.747 1106.03 149.91C1106.03 134.441 1103.42 122.725 1098.91 114.134L1098.88 114.07L1098.84 114.006C1094.52 105.493 1088.26 99.3952 1079.84 95.3909L1079.74 95.3435L1079.64 95.2941C1071.06 91.0036 1060.09 88.5947 1046.29 88.5947H1026.71V213.325H1041.05C1064.77 213.325 1080.43 207.516 1090.19 197.893ZM1307.42 144.62C1314.68 148.801 1320.57 154.547 1324.9 161.773C1329.93 170.152 1332 180.283 1332 191.377C1332 204.504 1328.95 216.418 1322.32 226.584L1322.29 226.631L1322.26 226.678C1315.67 236.567 1306.34 243.902 1294.82 248.84L1294.77 248.859L1294.73 248.878C1283.41 253.61 1270.33 255.775 1255.79 255.775H1178.8V46.1445H1243.46C1259.65 46.1445 1273.77 47.6807 1285.57 51.0215C1297.85 54.4479 1308.12 60.4046 1315.21 69.5744C1322.57 78.8837 1325.7 90.6374 1325.7 103.719C1325.7 112.477 1324.03 120.713 1320.42 128.187C1317.39 134.63 1312.99 140.111 1307.42 144.62ZM1224.66 213.587H1251.33C1267.19 213.587 1274.88 210.365 1278.11 207.134C1282.19 203.056 1284.56 197.558 1284.56 189.54C1284.56 184.595 1283.47 180.886 1281.72 177.99L1281.64 177.864L1281.57 177.736C1280.37 175.647 1277.94 173.293 1272.8 171.312L1272.63 171.25L1272.47 171.182C1267.76 169.2 1260.34 167.854 1249.49 167.854H1224.66V213.587ZM1273.97 121.033C1276.85 118.446 1279.05 114.185 1279.05 106.343C1279.05 98.9894 1276.7 95.7797 1273.46 93.8536L1273.33 93.7733L1273.19 93.6892C1268.77 90.8866 1259.88 88.5947 1244.51 88.5947H1224.66V125.929H1248.18C1263.85 125.929 1271.24 123.304 1273.97 121.033ZM342.275 234.48H342.974V255.781H391.162V169.53C391.162 155.33 389.998 142.876 387.67 132.167C385.342 121.226 381.152 112.03 375.099 104.581C369.28 97.1314 361.365 91.5444 351.354 87.8197C341.577 83.8622 329.006 81.8834 313.642 81.8834C299.674 81.8834 286.172 84.2114 273.136 88.8673C260.099 93.2903 248.692 100.041 238.915 109.12L266.85 137.754C272.437 131.469 278.723 126.58 285.706 123.088C292.923 119.363 300.838 117.501 309.451 117.501C318.53 117.501 326.329 120.294 332.847 125.882C339.598 131.236 342.974 138.569 342.974 147.881C335.757 147.881 327.842 147.997 319.229 148.23C310.848 148.463 302.351 149.161 293.738 150.325C285.357 151.489 277.209 153.351 269.294 155.912C261.379 158.24 254.279 161.615 247.994 166.039C241.941 170.462 237.052 176.049 233.328 182.8C229.836 189.551 228.09 197.815 228.09 207.592C228.09 216.206 229.719 223.772 232.979 230.29C236.238 236.808 240.661 242.279 246.248 246.702C251.835 251.125 258.237 254.384 265.453 256.479C272.903 258.807 280.585 259.971 288.5 259.971C299.208 259.971 309.335 257.992 318.88 254.035C328.657 250.077 336.456 243.559 342.275 234.48ZM330.054 181.403C326.096 181.403 321.091 181.636 315.039 182.101C309.219 182.334 303.515 183.265 297.928 184.895C292.574 186.524 287.918 188.969 283.96 192.228C280.236 195.487 278.373 200.027 278.373 205.846C278.373 212.132 281.051 216.788 286.405 219.814C291.759 222.84 297.346 224.354 303.166 224.354C308.287 224.354 313.176 223.655 317.832 222.258C322.721 220.862 327.027 218.883 330.752 216.322C334.477 213.761 337.387 210.502 339.482 206.545C341.81 202.587 342.974 197.931 342.974 192.577V181.403H330.054ZM724.046 251.241C736.849 245.421 747.441 237.157 755.822 226.449L719.157 199.561C714.734 205.614 709.496 210.619 703.443 214.576C697.624 218.301 690.407 220.163 681.793 220.163C671.551 220.163 662.937 217.253 655.953 211.433C648.97 205.381 644.43 197.349 642.335 187.339H763.854V170.927C763.854 157.425 761.991 145.203 758.266 134.262C754.542 123.321 749.187 114.009 742.204 106.327C735.453 98.4118 727.072 92.3592 717.062 88.1689C707.284 83.9786 696.343 81.8834 684.238 81.8834C671.201 81.8834 658.863 83.9786 647.224 88.1689C635.817 92.3592 625.806 98.4118 617.193 106.327C608.812 114.009 602.178 123.321 597.289 134.262C592.4 145.203 589.956 157.425 589.956 170.927C589.956 184.429 592.4 196.651 597.289 207.592C602.178 218.534 608.812 227.962 617.193 235.877C625.806 243.559 635.817 249.495 647.224 253.686C658.863 257.876 671.201 259.971 684.238 259.971C697.973 259.971 711.242 257.061 724.046 251.241ZM702.745 129.024C708.798 135.31 711.708 142.876 711.475 151.722H642.335C642.568 147.531 643.499 143.574 645.128 139.849C646.991 135.892 649.435 132.516 652.461 129.723C655.721 126.696 659.562 124.252 663.985 122.39C668.408 120.527 673.529 119.596 679.349 119.596C688.894 119.596 696.692 122.739 702.745 129.024ZM789.57 86.0737H839.854V109.12H840.552C842.182 105.861 844.51 102.602 847.536 99.343C850.562 96.0839 854.171 93.1739 858.361 90.6132C862.551 88.0525 867.324 85.9573 872.678 84.3278C878.032 82.6982 883.852 81.8834 890.137 81.8834C903.407 81.8834 914.115 83.9786 922.263 88.1689C930.411 92.1264 936.696 97.7134 941.119 104.93C945.775 112.147 948.918 120.644 950.548 130.421C952.177 140.198 952.992 150.791 952.992 162.197V255.781H900.613V172.673C900.613 167.785 900.38 162.779 899.915 157.658C899.682 152.304 898.634 147.415 896.772 142.992C895.143 138.569 892.465 134.961 888.741 132.167C885.249 129.373 880.127 127.977 873.376 127.977C866.625 127.977 861.155 129.257 856.964 131.818C852.774 134.146 849.515 137.405 847.187 141.595C845.092 145.553 843.695 150.092 842.997 155.214C842.298 160.335 841.949 165.689 841.949 171.276V255.781H789.57V86.0737ZM394.784 86.0738H451.353L494.303 201.307H495.002L534.81 86.0738H587.537L520.493 255.781H464.971L394.784 86.0738Z" fill="#388EE9"/>
</svg>
